# xmcd
#
# Track frame offsets:
#	150
#	10621
#	21991
#	33987
#	47307
#	58614
#	67940
#	79328
#	92296
#	107866
#
# Disc length: 1602
#
# Revision: 1
# Processed by: cddbd v1.5.1PL0 Copyright (c) Steve Scherf et al.
# Submitted via: VisiTrax 2.9.10.228 - For more info visit www.synapsa.com
# Normalized: r0:DSETVAR2
#
DISCID=6c06400a
DTITLE=Various Artist - Charley Prides Greatest Hits
DYEAR=1900
DGENRE=Country
TTITLE0=Charley Pride - Mississippi Cotton Pickin' Town
TTITLE1=Charley Pride - My Eyes Only See As Far As You
TTITLE2=Charley Pride - There Goes My Everything
TTITLE3=Charley Pride - (I'm So) Afraid Of Losing You
TTITLE4=Charley Pride - The Happiness Of Having You
TTITLE5=Charley pride - Kiss An Angel Good Morning
TTITLE6=Charley Pride - It's Gonna Take A Little Bit Longer
TTITLE7=Charley Pride - Kaw-Ligi
TTITLE8=Charley Pride - Me And Bobby McGee
TTITLE9=Charley Pride - Help Me Make It Through The Night
EXTD=
EXTT0=
EXTT1=
EXTT2=
EXTT3=
EXTT4=
EXTT5=
EXTT6=
EXTT7=
EXTT8=
EXTT9=
PLAYORDER=
